<?xml version="1.0" encoding="utf-8"?>
<!-- Generator: Adobe Illustrator 22.1.0, SVG Export Plug-In . SVG Version: 6.00 Build 0)  -->
<svg version="1.1" id="pattern" xmlns="http://www.w3.org/2000/svg" xmlns:xlink="http://www.w3.org/1999/xlink" x="0px" y="0px"
	 viewBox="0 0 1200 750" style="enable-background:new 0 0 1200 750;" xml:space="preserve">
<style type="text/css">
	.st0{fill:#F1F1F2;}
</style>
<g>
	<path class="st0" d="M188,575.7C188,575.7,188,575.7,188,575.7l62,37.2L187,750h11l43.4-94.4l17.3-37.6l156.7,93.9
		c0,0,0.1,0,0.1,0.1L479,750h19.4l-76.6-45.9l-88.2-190.9l198.2-187L569,750h10l-38.1-432.5l164.2-154.9l52.2,107l-83.8,243.8
		c0,0,0,0,0,0.1L592,750h10.5l75.1-218.5L741,750h10.4l-66.7-230.4l201.6-13.3l-36.5,77.8c0,0.1-0.1,0.1-0.1,0.2L771.9,750h11
		l72.4-154.4L979.2,750H992l-1.8-2.2L1200,552.4v-13.6L984,740L860,585.6l37.5-80l302.5-19.9v-10l-74,4.9l74-88.5v-15.5l-87.7,105
		l-117.7,7.8l64-194.1l141.4,58.8v-10.8l-165.3-68.8l-177.1-73.7c0,0,0,0,0,0l-52.7-21.9L1122.6,0h-20.3L802.5,168.6L860.5,0H850
		l-88.1,256.3L711,152.2L636.8,0h-11.1l74.7,153.2L532.3,311.9c0,0,0,0-0.1,0.1L329.1,503.7l-17.7-38.3L491,176.9L601.2,0h-11.7
		l-283,454.6l-105.4-228l-36.6-79.3l186.3-72c0,0,0.1,0,0.1-0.1L545.5,0h-43l-0.6,6.2L353.4,63.6L348.5,0h-10l4.6,59L274.2,0h-15.3
		l80.5,69l-179.1,69.3l-30.3-65.6L176.8,0h-11.9L125,62L96.3,0h-11l34.3,74.3c0,0,0,0.1,0.1,0.1l33.4,72.3l37.1,80.3L0,362.3v12.2
		l194.5-138.3l45.4,98.1l-52.6,229.3L51.5,482.3c-0.1,0-0.1-0.1-0.2-0.1L0,451.5v11.6l44,26.4L53.3,750h10l-9-254.5L188,575.7z
		 M1049.4,291.2L986.8,481L865.4,214.7L1049.4,291.2z M767.3,270.9l29.2-84.9l27.9,11.6l27.4,11.4L980,490.1l-86,5.7
		c-0.1,0-0.2,0-0.2,0l-208.6,13.7L767.3,270.9z M246.7,349.2l54.5,118c0,0,0,0,0,0l21.7,46.9c0,0.1,0.1,0.1,0.1,0.2L406.6,695
		l-147.6-88.5L196.3,569L246.7,349.2z"/>
</g>
</svg>
